<svg id="SvgjsSvg1216" width="288" height="288" xmlns="http://www.w3.org/2000/svg" version="1.1" xmlns:xlink="http://www.w3.org/1999/xlink" xmlns:svgjs="http://svgjs.com/svgjs"><defs id="SvgjsDefs1217"></defs><g id="SvgjsG1218"><svg xmlns="http://www.w3.org/2000/svg" viewBox="0 0 24 24" width="288" height="288"><path d="M22.597 24H1.406A1.41 1.41 0 0 1 0 22.594V1.406A1.41 1.41 0 0 1 1.406 0h21.191a1.41 1.41 0 0 1 1.406 1.406v21.188A1.41 1.41 0 0 1 22.597 24zM11.911 2.109c-5.405.047-9.763 4.482-9.802 9.89-.04 5.507 4.381 9.885 9.89 9.89 5.415.003 9.796-4.5 9.89-9.89.097-5.572-4.406-9.939-9.978-9.89zM9.65 8.633l-.889 2.159H15.3l-.889-2.159 6.642 3.365-6.642 3.365.889-2.159H8.761l.882 2.159-6.659-3.365z" fill="#ffffff" class="color000 svgShape"></path></svg></g></svg>