<svg id="SvgjsSvg1231" width="288" height="288" xmlns="http://www.w3.org/2000/svg" version="1.1" xmlns:xlink="http://www.w3.org/1999/xlink" xmlns:svgjs="http://svgjs.com/svgjs"><defs id="SvgjsDefs1232"></defs><g id="SvgjsG1233"><svg xmlns="http://www.w3.org/2000/svg" viewBox="0 0 24 24" width="288" height="288"><path d="M24 2.251V10.5H12.45V0h9.3A2.251 2.251 0 0 1 24 2.251zM12.45 11.4H24v10.5h-.008A2.25 2.25 0 0 1 21.75 24H2.25a2.247 2.247 0 0 1-2.242-2.1H0V2.251A2.251 2.251 0 0 1 2.25 0h9.3v21.6h.9V11.4zm11.242 10.5H.308a1.948 1.948 0 0 0 1.942 1.8h19.5a1.95 1.95 0 0 0 1.942-1.8z" fill="#ffffff" class="color000 svgShape"></path></svg></g></svg>